<?xml version="1.0" standalone="no"?>
<!DOCTYPE svg PUBLIC "-//W3C//DTD SVG 20010904//EN"
 "http://www.w3.org/TR/2001/REC-SVG-20010904/DTD/svg10.dtd">
<svg version="1.0" xmlns="http://www.w3.org/2000/svg"
 width="1007.000000pt" height="1007.000000pt" viewBox="0 0 1007.000000 1007.000000"
 preserveAspectRatio="xMidYMid meet">
<metadata>
Created by potrace 1.11, written by Peter Selinger 2001-2013
</metadata>
<g transform="translate(0.000000,1007.000000) scale(0.100000,-0.100000)"
fill="#000000" stroke="none">
<path d="M1708 6353 c-22 -6 -30 -29 -14 -42 7 -6 33 -14 57 -17 59 -8 83 -33
83 -85 0 -44 -4 -49 -85 -111 -72 -55 22 -60 120 -6 104 58 143 172 82 237
-29 31 -30 31 -128 30 -54 -1 -105 -3 -115 -6z"/>
<path d="M1572 5902 c-30 -29 -163 -195 -202 -252 -13 -19 -27 -37 -30 -40 -4
-3 -21 -27 -40 -55 -108 -161 -382 -490 -582 -699 -55 -57 -65 -73 -57 -88 5
-10 15 -18 22 -18 27 0 304 303 447 488 35 45 64 82 65 82 0 0 1 -26 1 -57 1
-259 80 -461 231 -592 104 -90 218 -122 413 -117 172 4 306 45 475 144 151 88
211 139 505 422 118 115 238 227 265 249 163 135 337 124 401 -24 23 -52 28
-240 9 -350 -20 -119 -23 -136 -46 -230 -25 -108 -23 -159 8 -163 12 -2 35 4
52 12 36 19 159 140 261 256 180 205 292 298 415 341 122 43 237 4 284 -96 22
-47 26 -86 36 -315 5 -145 15 -188 51 -224 41 -40 81 -35 131 17 35 36 153
209 233 342 13 22 28 42 32 43 4 2 8 7 8 12 0 11 161 249 209 310 85 108 152
146 243 138 145 -12 191 -88 208 -343 10 -152 28 -237 63 -295 81 -134 177
-182 355 -176 59 2 116 6 127 9 73 19 153 45 268 88 492 186 753 198 1277 59
461 -122 610 -156 770 -174 25 -3 72 -8 105 -12 132 -15 381 -7 520 17 217 38
300 77 250 119 -13 10 -29 10 -88 -4 -89 -21 -98 -22 -172 -31 -33 -4 -69 -9
-80 -12 -38 -8 -380 -10 -445 -3 -36 5 -92 11 -125 15 -99 11 -289 53 -470
105 -242 69 -271 76 -360 94 -111 22 -113 23 -175 31 -30 3 -68 9 -83 11 -78
12 -282 12 -378 -1 -146 -19 -253 -45 -464 -115 -232 -76 -295 -89 -425 -86
-84 2 -115 6 -155 25 -120 53 -164 140 -179 351 -16 212 -31 288 -67 346 -70
115 -236 157 -363 94 -64 -33 -179 -140 -252 -237 -33 -43 -62 -80 -65 -83 -9
-8 -129 -194 -217 -336 -45 -72 -88 -137 -96 -144 -21 -16 -23 -10 -36 112
-35 335 -128 474 -320 484 -170 8 -310 -70 -553 -310 l-108 -106 8 92 c24 275
-8 400 -122 478 -79 54 -207 74 -290 44 -106 -37 -185 -89 -290 -190 -262
-251 -431 -396 -575 -494 -320 -217 -727 -228 -909 -23 -58 65 -112 170 -136
263 -23 86 -16 247 15 345 38 123 146 299 234 384 50 48 47 101 -4 101 -5 0
-22 -12 -38 -28z"/>
<path d="M5192 4360 c-12 -12 -22 -26 -23 -33 0 -7 -2 -20 -4 -29 -6 -32 15
-30 26 1 6 17 13 31 17 31 3 0 24 -11 47 -25 65 -38 97 -40 129 -9 16 17 26
38 26 55 0 36 -16 38 -24 4 -8 -32 -29 -31 -81 0 -49 30 -84 32 -113 5z"/>
<path d="M508 4249 c-123 -19 -222 -143 -220 -274 0 -72 20 -122 70 -177 73
-81 207 -107 332 -65 l65 22 3 104 c2 107 10 131 44 131 10 0 16 5 13 10 -8
12 -205 13 -205 1 0 -5 14 -14 30 -20 18 -6 30 -17 31 -28 1 -10 2 -54 2 -98
2 -79 1 -80 -27 -94 -57 -27 -147 -10 -196 38 -10 9 -28 36 -41 61 -33 63 -33
196 -2 256 44 84 128 121 213 95 41 -12 96 -67 106 -106 7 -27 34 -24 28 3 -2
9 -5 43 -8 76 -2 32 -9 63 -15 69 -6 6 -11 7 -11 2 -1 -29 -16 -35 -56 -22
-56 20 -102 25 -156 16z"/>
<path d="M2372 4244 c-5 -11 -50 -116 -101 -234 -100 -236 -113 -260 -142
-260 -10 0 -19 -6 -19 -13 0 -11 20 -14 85 -14 65 0 85 3 85 14 0 7 -8 13 -17
13 -43 1 -47 15 -23 77 13 32 25 60 27 63 3 3 69 5 193 5 0 0 11 -27 24 -60
26 -63 22 -85 -15 -85 -12 0 -16 -5 -13 -14 4 -11 28 -14 104 -13 54 1 101 5
105 9 4 4 -8 13 -26 21 -41 17 -37 9 -148 276 -49 117 -94 218 -99 223 -7 7
-13 4 -20 -8z m32 -213 c20 -45 36 -87 36 -92 0 -5 -34 -9 -75 -9 -41 0 -75 3
-75 7 0 9 74 183 77 180 1 -1 18 -40 37 -86z"/>
<path d="M3065 4249 c-92 -17 -154 -64 -191 -144 -48 -104 -40 -207 24 -295
50 -68 105 -94 197 -95 86 0 144 28 189 92 40 57 26 66 -21 14 -100 -111 -274
-75 -313 64 -19 69 -9 192 21 245 66 121 234 115 291 -11 13 -27 27 -49 32
-49 9 0 -1 166 -10 182 -3 5 -13 -1 -23 -13 -17 -21 -19 -22 -62 -6 -58 22
-86 25 -134 16z"/>
<path d="M4238 4236 c-57 -29 -83 -67 -83 -121 0 -61 25 -90 140 -161 55 -33
107 -73 116 -88 29 -48 2 -101 -58 -112 -77 -14 -155 37 -169 111 -6 34 -23
48 -25 23 -1 -16 -1 -160 0 -170 2 -15 21 -8 21 7 0 19 8 19 83 -1 72 -19 128
-13 174 19 54 37 79 118 52 170 -21 38 -53 63 -151 121 -124 72 -141 99 -95
152 19 21 31 26 66 26 23 -1 54 -8 67 -17 31 -20 64 -73 64 -102 0 -13 6 -23
14 -23 11 0 14 21 15 89 2 90 -9 119 -29 81 -10 -18 -13 -19 -48 -5 -64 24
-108 25 -154 1z"/>
<path d="M5267 4228 c-8 -18 -50 -114 -92 -213 -100 -233 -111 -254 -140 -265
-47 -18 -25 -28 60 -28 88 0 108 11 55 30 -34 11 -34 11 0 98 l17 44 92 1 c50
1 95 -1 100 -5 4 -3 17 -30 29 -61 22 -60 17 -79 -21 -79 -10 0 -17 -5 -15
-12 5 -15 204 -22 213 -8 3 5 -11 17 -31 27 -35 17 -42 30 -135 252 -54 129
-102 238 -107 243 -6 6 -15 -4 -25 -24z m42 -206 l39 -92 -79 0 c-43 0 -79 3
-79 7 0 12 74 183 77 179 2 -1 21 -44 42 -94z"/>
<path d="M6707 4229 c-8 -19 -54 -123 -101 -233 -96 -223 -108 -246 -136 -246
-11 0 -20 -6 -20 -13 0 -17 161 -18 167 -1 2 6 -10 14 -27 17 -16 4 -30 10
-30 15 0 5 11 35 24 67 l24 59 92 1 c104 0 105 -1 134 -82 14 -41 14 -43 -6
-57 -12 -9 -26 -12 -31 -9 -5 3 -7 0 -5 -8 4 -11 29 -14 106 -14 60 0 103 4
105 10 1 6 -8 11 -20 13 -34 5 -51 37 -148 270 -49 118 -94 221 -100 229 -10
13 -14 10 -28 -18z m37 -199 c20 -46 36 -88 36 -92 0 -4 -34 -8 -75 -8 -41 0
-75 3 -75 7 0 10 73 183 76 180 2 -1 19 -40 38 -87z"/>
<path d="M7786 4239 c-9 -13 -16 -27 -16 -31 0 -4 -11 -32 -25 -62 -14 -30
-25 -57 -25 -60 0 -3 -11 -29 -25 -58 -13 -29 -42 -95 -65 -147 -22 -52 -47
-103 -57 -113 -19 -22 -64 -23 -102 -3 -26 13 -161 184 -161 204 0 5 10 11 23
15 33 8 87 64 88 92 4 73 2 80 -35 118 -44 43 -108 52 -323 47 -44 -1 -62 -21
-20 -21 45 0 47 -12 47 -237 l0 -213 -25 -16 c-13 -8 -29 -13 -35 -9 -5 3 -10
-1 -10 -9 0 -14 16 -16 111 -14 110 2 149 13 89 24 -42 9 -50 29 -50 129 l0
86 27 -3 c21 -2 44 -27 111 -119 l84 -116 151 1 c96 1 151 5 150 11 -1 6 -12
12 -25 15 -31 8 -33 31 -8 93 l22 52 91 -2 c51 -1 95 -2 99 -2 11 -2 49 -113
44 -128 -3 -7 -15 -13 -26 -13 -11 0 -20 -6 -20 -14 0 -17 201 -17 207 0 2 6
-9 14 -24 17 -15 3 -33 14 -40 25 -6 11 -53 118 -103 238 -113 270 -103 252
-124 223z m-483 -70 c55 -59 24 -150 -58 -167 -71 -15 -70 -17 -73 95 -3 99
-2 102 20 106 43 7 83 -5 111 -34z m519 -146 l36 -88 -75 -3 c-42 -2 -77 -1
-79 1 -5 5 69 177 76 177 4 0 23 -39 42 -87z"/>
<path d="M8901 4233 c-8 -15 -48 -109 -91 -208 -102 -237 -116 -264 -146 -275
-44 -17 -17 -28 66 -27 60 0 80 3 80 14 0 7 -8 13 -17 13 -41 1 -45 14 -22 76
12 32 26 62 31 65 10 6 186 5 191 -2 11 -12 44 -116 40 -126 -3 -7 -15 -13
-29 -13 -15 0 -22 -5 -18 -13 7 -20 204 -22 204 -3 0 8 -11 17 -25 20 -30 8
-39 25 -145 281 -46 110 -89 206 -95 213 -9 10 -14 7 -24 -15z m38 -211 l39
-92 -79 0 c-80 0 -87 4 -70 38 22 41 61 134 61 144 0 20 9 3 49 -90z"/>
<path d="M9793 4248 c-6 -7 -52 -110 -102 -228 -103 -241 -112 -257 -147 -270
-41 -16 -20 -25 64 -28 85 -2 112 9 62 27 -36 12 -37 28 -9 96 l21 51 91 -2
c51 -1 95 -2 99 -3 11 -2 49 -113 44 -128 -3 -7 -15 -13 -26 -13 -11 0 -20 -6
-20 -13 0 -10 24 -14 100 -15 78 -1 100 2 100 12 0 8 -11 17 -24 20 -28 7 -34
18 -146 286 -100 237 -94 225 -107 208z m29 -225 l36 -88 -75 -3 c-42 -2 -77
-1 -79 1 -5 5 69 177 76 177 4 0 23 -39 42 -87z"/>
<path d="M72 4242 c-59 -3 -67 -14 -19 -27 l32 -10 3 -205 c1 -113 0 -215 -3
-227 -4 -18 -13 -23 -35 -23 -18 0 -30 -5 -30 -13 0 -9 30 -13 116 -15 89 -2
115 1 112 10 -3 7 -10 14 -16 14 -7 1 -16 2 -21 3 -34 4 -37 28 -36 241 1 226
2 230 53 230 38 0 24 20 -15 21 -21 0 -49 1 -63 2 -14 1 -49 1 -78 -1z"/>
<path d="M858 4242 c-34 -4 -37 -22 -4 -22 45 0 49 -17 49 -229 -1 -109 -4
-208 -8 -220 -4 -15 -14 -21 -36 -21 -18 0 -29 -5 -29 -13 0 -11 25 -14 115
-14 80 0 115 3 112 11 -2 6 -14 12 -26 12 -37 2 -44 19 -46 119 l-2 95 26 0
c21 -1 41 -21 112 -119 l86 -118 271 0 270 0 25 66 c14 38 20 68 14 70 -5 2
-14 -4 -19 -14 -6 -9 -23 -31 -38 -49 -27 -29 -33 -31 -114 -35 -57 -2 -91 1
-101 9 -11 9 -14 35 -12 108 l2 97 40 3 c22 1 59 0 82 -3 37 -5 43 -10 53 -41
20 -59 30 -38 30 61 0 58 -4 95 -10 95 -6 0 -13 -13 -16 -30 -8 -36 -44 -50
-124 -47 l-55 2 0 95 0 95 90 1 c80 0 92 -2 112 -22 13 -13 23 -33 23 -44 0
-13 5 -20 13 -17 12 4 15 102 4 114 -4 4 -295 7 -379 4 -27 -1 -22 -21 5 -21
45 0 47 -11 47 -242 l0 -217 -32 -9 c-43 -11 -96 3 -130 35 -28 27 -143 182
-137 186 2 1 22 11 44 22 101 50 93 186 -13 230 -33 14 -223 25 -294 17z m218
-41 c24 -2 58 -43 64 -79 8 -46 -10 -86 -48 -106 -32 -17 -101 -29 -103 -18
-1 4 -2 51 -3 104 -2 105 -1 107 59 102 11 -1 25 -3 31 -3z"/>
<path d="M1884 4241 c-11 -11 -2 -21 20 -21 47 0 52 -22 51 -244 -1 -156 -4
-209 -14 -218 -11 -11 -15 -9 -25 6 -29 48 -42 59 -64 52 -12 -4 -25 -19 -28
-33 -6 -21 -1 -31 20 -50 42 -36 89 -29 145 21 38 35 44 63 47 255 4 194 8
211 50 211 49 0 22 20 -28 21 -29 0 -79 2 -111 2 -32 1 -61 0 -63 -2z"/>
<path d="M3363 4242 c-13 -2 -23 -8 -23 -13 0 -5 10 -9 23 -9 51 -1 52 -3 52
-234 0 -225 -2 -237 -44 -240 -12 0 -22 -5 -24 -11 -1 -6 41 -10 111 -11 80
-1 112 2 109 10 -2 6 -14 13 -28 15 -13 1 -27 8 -31 15 -4 6 -8 53 -8 104 0
90 0 92 24 92 19 0 40 -22 101 -106 42 -58 78 -111 81 -118 3 -9 56 -12 194
-13 166 -2 190 0 190 14 0 9 -6 13 -14 10 -7 -3 -23 1 -35 9 -20 15 -21 23
-21 220 0 122 4 213 10 225 6 11 21 19 35 19 46 0 37 20 -9 21 -140 3 -198 0
-191 -11 3 -5 15 -10 25 -10 10 0 26 -7 34 -16 14 -13 16 -47 16 -224 -1 -156
-4 -211 -14 -219 -30 -25 -112 -16 -150 17 -10 10 -47 57 -82 106 l-64 89 38
17 c116 52 108 199 -13 239 -29 10 -247 19 -292 13z m257 -61 c14 -10 29 -34
33 -54 16 -66 -31 -121 -110 -131 l-43 -5 0 104 c0 99 1 104 23 108 32 7 69
-1 97 -22z"/>
<path d="M4583 4242 c-21 -3 -23 -8 -23 -70 1 -61 2 -65 15 -48 8 11 15 25 15
31 0 28 38 46 91 43 l52 -3 0 -206 c0 -113 -2 -213 -6 -222 -4 -11 -18 -17
-38 -17 -20 0 -29 -4 -27 -12 6 -16 218 -19 218 -3 0 6 -9 11 -21 11 -40 2
-43 15 -43 236 l-1 213 56 3 c51 3 59 0 78 -24 12 -15 21 -35 21 -46 0 -11 5
-18 12 -16 8 3 11 24 9 64 -1 32 -4 61 -6 63 -5 4 -372 7 -402 3z"/>
<path d="M5770 4233 c0 -7 8 -13 18 -13 10 0 26 -6 35 -13 15 -11 18 -32 18
-157 1 -303 2 -298 -44 -302 -15 -1 -27 -8 -27 -14 0 -8 29 -12 95 -12 65 0
95 4 95 12 0 6 -12 13 -27 14 -15 1 -32 7 -37 12 -6 6 -10 84 -11 190 0 99 2
176 5 172 4 -4 24 -45 45 -92 109 -239 146 -313 155 -304 5 5 48 95 96 199 48
105 90 193 93 197 3 4 5 -74 5 -173 -1 -99 -6 -185 -11 -190 -5 -5 -21 -10
-36 -11 -15 -1 -27 -8 -27 -14 0 -9 32 -12 115 -12 82 0 115 4 112 12 -2 6
-16 13 -32 16 -20 4 -30 12 -35 30 -3 14 -5 114 -4 223 1 212 2 217 52 217 12
0 22 4 22 9 0 12 -49 17 -112 13 -45 -4 -47 -6 -66 -50 -22 -51 -87 -193 -130
-284 l-27 -57 -47 102 c-26 56 -67 143 -90 192 -23 50 -42 92 -41 95 1 3 -34
5 -78 5 -56 0 -79 -4 -79 -12z"/>
<path d="M8074 4241 c-10 -11 -2 -19 24 -24 15 -3 37 -14 50 -25 21 -19 22
-25 22 -214 0 -208 -4 -224 -50 -231 -55 -8 -15 -22 70 -24 75 -1 90 1 90 14
0 9 -6 13 -14 10 -7 -3 -23 1 -35 9 -20 14 -21 23 -21 187 l1 172 27 -31 c15
-16 86 -102 157 -189 144 -176 155 -188 162 -181 3 3 5 107 5 232 0 124 3 237
8 250 7 16 17 24 34 24 32 0 45 20 14 21 -13 0 -56 1 -96 2 -52 1 -72 -1 -72
-10 0 -7 11 -13 25 -13 14 0 29 -8 35 -19 6 -11 10 -88 10 -177 l0 -156 -81
98 c-45 55 -88 108 -97 119 -10 11 -37 45 -62 75 -25 30 -50 61 -57 67 -11 12
-139 23 -149 14z"/>
<path d="M9163 4242 c-13 -2 -23 -9 -24 -15 0 -7 -2 -36 -5 -64 -5 -61 9 -70
26 -18 14 44 35 55 99 55 l51 0 0 -214 c0 -207 -1 -215 -21 -230 -12 -8 -27
-12 -34 -10 -7 3 -15 -1 -18 -9 -4 -11 17 -14 109 -15 99 -2 114 0 114 14 0
10 -6 14 -14 11 -7 -3 -23 1 -35 9 -20 15 -21 23 -21 230 l0 214 53 0 c53 0
97 -20 97 -44 0 -7 7 -21 15 -32 14 -17 15 -13 13 49 -1 61 -3 67 -22 68 -115
2 -366 3 -383 1z"/>
</g>
</svg>
